<svg width="68" height="69" viewBox="0 0 68 69" fill="none" xmlns="http://www.w3.org/2000/svg">
<path d="M65.5074 6.46735C67.1034 8.06409 68 10.2293 68 12.4869C68 14.7446 67.1034 16.9098 65.5074 18.5065L58.0125 26.0057L42.8517 10.8512L50.3508 3.3521C51.9488 1.75594 54.115 0.859375 56.3736 0.859375C58.6322 0.859375 60.7984 1.75594 62.3964 3.3521L65.5074 6.46735ZM5.96912 47.7455L39.8437 13.8581L55.0035 29.0104L21.1097 62.8882C20.2137 63.7816 19.1074 64.4353 17.8925 64.789L4.06725 68.7383C3.51101 68.9006 2.91981 68.8992 2.36435 68.7343C1.80888 68.5694 1.31266 68.2481 0.934997 67.8087C0.528059 67.4338 0.235784 66.9512 0.0921004 66.4169C-0.0515834 65.8826 -0.0407832 65.3185 0.123247 64.7901L4.07575 50.9627C4.42038 49.7456 5.07241 48.6377 5.96912 47.7455V47.7455ZM33.1596 14.5317L13.7477 33.9436L2.125 22.3092C1.53243 21.7172 1.06235 21.0142 0.74163 20.2403C0.420906 19.4665 0.255827 18.6371 0.255827 17.7994C0.255827 16.9618 0.420906 16.1324 0.74163 15.3585C1.06235 14.5847 1.53243 13.8817 2.125 13.2897L12.5056 2.90798C13.0977 2.31541 13.8007 1.84533 14.5745 1.52461C15.3483 1.20388 16.1778 1.03881 17.0154 1.03881C17.8531 1.03881 18.6825 1.20388 19.4563 1.52461C20.2301 1.84533 20.9331 2.31541 21.5252 2.90798L24.1581 5.53554C24.1177 5.57379 24.0646 5.61523 24.0252 5.65879L15.5125 14.1705C15.3095 14.3665 15.1477 14.601 15.0363 14.8602C14.9249 15.1195 14.8663 15.3983 14.8638 15.6805C14.8614 15.9627 14.9152 16.2425 15.022 16.5036C15.1288 16.7648 15.2866 17.002 15.4862 17.2016C15.6857 17.4011 15.9229 17.5589 16.1841 17.6657C16.4452 17.7726 16.7251 17.8263 17.0072 17.8239C17.2894 17.8214 17.5682 17.7628 17.8275 17.6514C18.0867 17.5401 18.3212 17.3782 18.5172 17.1752L27.03 8.66885C27.0704 8.62635 27.0034 8.58066 27.1501 8.53497L33.1596 14.5317ZM60.3224 41.7083C60.2749 41.7446 60.2304 41.7848 60.1896 41.8284L51.68 50.3369C51.2929 50.7377 51.0787 51.2745 51.0836 51.8316C51.0884 52.3888 51.3119 52.9218 51.7059 53.3158C52.0999 53.7098 52.6329 53.9332 53.19 53.9381C53.7472 53.9429 54.284 53.7287 54.6847 53.3417L63.1943 44.8321C63.2347 44.6727 63.1677 44.7386 63.3144 44.6993L65.9472 47.3322C67.1424 48.5276 67.8138 50.1489 67.8138 51.8393C67.8138 53.5297 67.1424 55.1509 65.9472 56.3464L55.5634 66.7302C54.3679 67.9253 52.7467 68.5967 51.0563 68.5967C49.3659 68.5967 47.7447 67.9253 46.5492 66.7302L34.9148 55.1107L54.3267 35.6988L60.3224 41.7083Z" fill="#A68F4B"/>
</svg>
