<svg width="60" height="69" viewBox="0 0 60 69" fill="none" xmlns="http://www.w3.org/2000/svg">
<path d="M30.0011 43.3594C34.1663 43.3522 38.1855 41.8365 41.3031 39.0973C44.4206 36.358 46.4217 32.5839 46.9302 28.4844H13.0719C13.5802 32.584 15.5813 36.3583 18.6989 39.0976C21.8164 41.8368 25.8357 43.3524 30.0011 43.3594ZM11.7861 24.2344H48.216C48.4996 24.2324 48.771 24.1199 48.9715 23.921C49.172 23.7222 49.2855 23.4531 49.2875 23.1719V18.9219C49.2855 18.6407 49.172 18.3716 48.9715 18.1727C48.771 17.9739 48.4996 17.8613 48.216 17.8594H47.1445C47.1459 14.9353 46.2782 12.0757 44.6498 9.63798C43.0214 7.20023 40.7045 5.29247 37.9889 4.15313L34.2869 11.4844V2.98438C34.2878 2.70509 34.2329 2.42838 34.1255 2.17019C34.0182 1.91199 33.8603 1.6774 33.6612 1.47991C33.462 1.28241 33.2254 1.12592 32.9651 1.01943C32.7047 0.912933 32.4257 0.858543 32.144 0.859385H27.8581C27.5765 0.858543 27.2974 0.912933 27.0371 1.01943C26.7767 1.12592 26.5401 1.28241 26.341 1.47991C26.1418 1.6774 25.984 1.91199 25.8766 2.17019C25.7692 2.42838 25.7144 2.70509 25.7152 2.98438V11.4844L22.0186 4.1457C19.3026 5.28725 16.9856 7.19642 15.3565 9.63513C13.7274 12.0738 12.8583 14.9341 12.8576 17.8594H11.7861C11.5026 17.8613 11.2312 17.9739 11.0307 18.1727C10.8301 18.3716 10.7166 18.6407 10.7147 18.9219V23.0529C10.7035 23.2009 10.7226 23.3497 10.7709 23.4903C10.8193 23.6308 10.8958 23.7601 10.9959 23.8706C11.0961 23.981 11.2177 24.0701 11.3535 24.1326C11.4893 24.1952 11.6365 24.2298 11.7861 24.2344ZM42.1515 47.6094H17.8539C13.1185 47.6105 8.57748 49.4766 5.22939 52.7973C1.8813 56.1179 0.000283979 60.6213 0 65.317C-4.26087e-08 66.2563 0.376216 67.1572 1.04591 67.8215C1.71561 68.4858 2.62396 68.8591 3.5712 68.8594H56.4299C57.3773 68.8594 58.2859 68.4862 58.9558 67.8218C59.6258 67.1575 60.0021 66.2565 60.0021 65.317C60.0031 62.9919 59.5421 60.6893 58.6455 58.5409C57.7488 56.3925 56.4341 54.4403 54.7764 52.7959C53.1187 51.1515 51.1505 49.8471 48.9843 48.9571C46.8181 48.0672 44.4963 47.6092 42.1515 47.6094Z" fill="#A68F4B"/>
</svg>
