<svg width="51" height="69" viewBox="0 0 51 69" fill="none" xmlns="http://www.w3.org/2000/svg">
<path d="M42.5 0.859375H8.5C6.24566 0.859375 4.08365 1.75491 2.48959 3.34897C0.895533 4.94303 0 7.10503 0 9.35938L0 60.3594C0 62.6137 0.895533 64.7757 2.48959 66.3698C4.08365 67.9638 6.24566 68.8594 8.5 68.8594H42.5C44.7543 68.8594 46.9163 67.9638 48.5104 66.3698C50.1045 64.7757 51 62.6137 51 60.3594V9.35938C51 7.10503 50.1045 4.94303 48.5104 3.34897C46.9163 1.75491 44.7543 0.859375 42.5 0.859375V0.859375ZM27.625 47.6094H10.625C10.0614 47.6094 9.52091 47.3855 9.1224 46.987C8.72388 46.5885 8.5 46.048 8.5 45.4844C8.5 44.9208 8.72388 44.3803 9.1224 43.9818C9.52091 43.5833 10.0614 43.3594 10.625 43.3594H27.625C28.1886 43.3594 28.7291 43.5833 29.1276 43.9818C29.5261 44.3803 29.75 44.9208 29.75 45.4844C29.75 46.048 29.5261 46.5885 29.1276 46.987C28.7291 47.3855 28.1886 47.6094 27.625 47.6094ZM40.375 34.8594H10.625C10.0614 34.8594 9.52091 34.6355 9.1224 34.237C8.72388 33.8385 8.5 33.298 8.5 32.7344C8.5 32.1708 8.72388 31.6303 9.1224 31.2318C9.52091 30.8333 10.0614 30.6094 10.625 30.6094H40.375C40.9386 30.6094 41.4791 30.8333 41.8776 31.2318C42.2761 31.6303 42.5 32.1708 42.5 32.7344C42.5 33.298 42.2761 33.8385 41.8776 34.237C41.4791 34.6355 40.9386 34.8594 40.375 34.8594ZM40.375 22.1094H10.625C10.0614 22.1094 9.52091 21.8855 9.1224 21.487C8.72388 21.0885 8.5 20.548 8.5 19.9844C8.5 19.4208 8.72388 18.8803 9.1224 18.4818C9.52091 18.0833 10.0614 17.8594 10.625 17.8594H40.375C40.9386 17.8594 41.4791 18.0833 41.8776 18.4818C42.2761 18.8803 42.5 19.4208 42.5 19.9844C42.5 20.548 42.2761 21.0885 41.8776 21.487C41.4791 21.8855 40.9386 22.1094 40.375 22.1094Z" fill="#A68F4B"/>
</svg>
