<svg width="51" height="69" viewBox="0 0 51 69" fill="none" xmlns="http://www.w3.org/2000/svg">
<path d="M31.9662 30.6094H46.7892C47.6427 30.5962 48.4782 30.8558 49.1738 31.3502C49.8694 31.8446 50.3889 32.5481 50.6565 33.3581C51.0057 34.1523 51.0909 35.0376 50.8995 35.8838C50.7081 36.7299 50.2503 37.4926 49.5932 38.0596L15.5662 67.8096C14.8409 68.4464 13.9202 68.8177 12.9557 68.8624C11.9912 68.907 11.0401 68.6224 10.2589 68.0553C9.47772 67.4883 8.91288 66.6725 8.65724 65.7421C8.40161 64.8117 8.4704 63.8221 8.85231 62.9359L19.0732 39.1094H4.13426C3.27869 39.086 2.45009 38.8052 1.75675 38.3038C1.0634 37.8024 0.537585 37.1036 0.248017 36.2988C-0.0415518 35.4941 -0.0813988 34.6207 0.133684 33.7929C0.348767 32.9652 0.808774 32.2215 1.45358 31.6591L35.4805 1.90912C36.206 1.27384 37.1261 0.903859 38.0898 0.859894C39.0534 0.815929 40.0034 1.10059 40.7839 1.66717C41.5643 2.23374 42.1288 3.04857 42.3847 3.97793C42.6407 4.90729 42.5728 5.89598 42.1923 6.78174L31.9662 30.6094Z" fill="#A68F4B"/>
</svg>
