<svg width="68" height="69" viewBox="0 0 68 69" fill="none" xmlns="http://www.w3.org/2000/svg">
<path d="M0 5.10938C0 3.9822 0.447767 2.9012 1.2448 2.10417C2.04183 1.30714 3.12283 0.859375 4.25 0.859375L21.25 0.859375C22.3772 0.859375 23.4582 1.30714 24.2552 2.10417C25.0522 2.9012 25.5 3.9822 25.5 5.10938V56.1094C25.5 59.4909 24.1567 62.7339 21.7656 65.125C19.3745 67.5161 16.1315 68.8594 12.75 68.8594C9.36849 68.8594 6.12548 67.5161 3.73439 65.125C1.3433 62.7339 0 59.4909 0 56.1094L0 5.10938ZM17 9.35938H8.5V17.8594H17V9.35938ZM8.5 34.8594H17V26.3594H8.5V34.8594ZM12.75 59.2969C13.3804 59.2969 13.9967 59.1099 14.5209 58.7597C15.0451 58.4094 15.4536 57.9116 15.6949 57.3292C15.9361 56.7467 15.9992 56.1058 15.8763 55.4875C15.7533 54.8692 15.4497 54.3013 15.0039 53.8555C14.5581 53.4097 13.9902 53.1061 13.3719 52.9831C12.7535 52.8601 12.1126 52.9233 11.5302 53.1645C10.9478 53.4058 10.4499 53.8143 10.0997 54.3385C9.74944 54.8627 9.5625 55.4789 9.5625 56.1094C9.56152 56.5282 9.6433 56.9432 9.80314 57.3303C9.96298 57.7175 10.1977 58.0693 10.4939 58.3655C10.7901 58.6616 11.1419 58.8964 11.529 59.0562C11.9162 59.2161 12.3311 59.2979 12.75 59.2969ZM29.75 56.1094V21.3125L39.7641 11.3027C40.5622 10.5052 41.6443 10.0573 42.7725 10.0573C43.9008 10.0573 44.9829 10.5052 45.781 11.3027L57.8 23.3185C58.5971 24.1166 59.0449 25.1984 59.0449 26.3264C59.0449 27.4544 58.5971 28.5363 57.8 29.3344L29.6969 57.4237C29.7362 56.9987 29.75 56.5471 29.75 56.1094ZM49.7781 43.3594H63.75C64.8772 43.3594 65.9582 43.8071 66.7552 44.6042C67.5522 45.4012 68 46.4822 68 47.6094V64.6094C68 65.7365 67.5522 66.8176 66.7552 67.6146C65.9582 68.4116 64.8772 68.8594 63.75 68.8594H24.2781L49.7781 43.3594Z" fill="#A68F4B"/>
</svg>
