<svg width="68" height="69" viewBox="0 0 68 69" fill="none" xmlns="http://www.w3.org/2000/svg">
<path d="M46.75 13.6093C46.7541 15.4529 46.3552 17.2751 45.5813 18.9484L52.5938 31.0609C49.409 34.468 45.3467 36.9311 40.8531 38.1796L34 26.3593H33.881L24.956 41.9653C27.8815 42.8903 30.9317 43.3604 34 43.3593C38.4741 43.3691 42.8916 42.3587 46.9167 40.405C50.9417 38.4512 54.4683 35.6054 57.2284 32.0841C57.9547 31.2248 58.9899 30.6857 60.1104 30.5832C61.2308 30.4807 62.3467 30.8229 63.2169 31.5361C64.0872 32.2493 64.642 33.2761 64.7616 34.3948C64.8812 35.5136 64.556 36.6345 63.8562 37.5156C60.2685 41.9863 55.7239 45.5956 50.557 48.0779C45.3901 50.5603 39.7323 51.8524 34 51.8593C29.4342 51.8644 24.9044 51.05 20.6263 49.4549L13.1017 62.445C12.4766 63.5237 11.55 64.3963 10.4359 64.9557L3.07594 68.6341C2.752 68.7962 2.39201 68.8728 2.03015 68.8566C1.66828 68.8404 1.31655 68.732 1.00837 68.5417C0.700181 68.3513 0.445766 68.0854 0.269282 67.769C0.0927977 67.4527 0.00010284 67.0965 0 66.7343L0 59.3776C0.00239815 58.2539 0.298338 57.1503 0.8585 56.1762L8.82725 42.4169C7.1275 40.9214 5.56047 39.2815 4.14375 37.5156C3.43736 36.6345 3.10715 35.5103 3.22482 34.3871C3.3425 33.264 3.89857 32.2326 4.77224 31.5171C5.64591 30.8016 6.76662 30.4596 7.89093 30.5656C9.01524 30.6715 10.0523 31.2168 10.7769 32.083C11.4954 33.0855 12.3053 34.0192 13.1962 34.8721L22.4188 18.9484C21.6216 17.2172 21.2227 15.3294 21.2514 13.4237C21.2802 11.518 21.7357 9.64307 22.5846 7.93669C23.4335 6.23032 24.6542 4.73597 26.1568 3.56356C27.6594 2.39115 29.4057 1.57051 31.2673 1.16202C33.1288 0.753533 35.0583 0.767578 36.9137 1.20313C38.7692 1.63867 40.5034 2.48464 41.9887 3.6788C43.4741 4.87296 44.6729 6.38492 45.4969 8.10347C46.3208 9.82202 46.749 11.7034 46.75 13.6093ZM34 17.8593C34.8406 17.8593 35.6623 17.61 36.3612 17.1431C37.0601 16.6761 37.6048 16.0123 37.9265 15.2357C38.2482 14.4591 38.3323 13.6046 38.1683 12.7802C38.0043 11.9558 37.5996 11.1985 37.0052 10.6041C36.4108 10.0097 35.6536 9.60495 34.8291 9.44097C34.0047 9.27698 33.1502 9.36115 32.3736 9.68282C31.597 10.0045 30.9333 10.5492 30.4663 11.2481C29.9993 11.947 29.75 12.7687 29.75 13.6093C29.75 14.7365 30.1978 15.8175 30.9948 16.6145C31.7918 17.4115 32.8728 17.8593 34 17.8593ZM49.4201 53.1747C53.7576 51.5187 57.785 49.1433 61.3328 46.1484L67.1373 56.1762C67.7027 57.1483 68.0004 58.253 68 59.3776V66.7343C68.0004 67.0973 67.9077 67.4543 67.731 67.7713C67.5542 68.0883 67.2992 68.3547 66.9902 68.5452C66.6813 68.7357 66.3287 68.8439 65.9661 68.8594C65.6034 68.875 65.2429 68.7974 64.9187 68.6341L57.5609 64.9546C56.4479 64.392 55.5208 63.5203 54.8909 62.4439L49.4201 53.1747Z" fill="#A68F4B"/>
</svg>
